<?xml version="1.0" encoding="UTF-8" standalone="no"?>
<svg
   xmlns:dc="http://purl.org/dc/elements/1.1/"
   xmlns:cc="http://creativecommons.org/ns#"
   xmlns:rdf="http://www.w3.org/1999/02/22-rdf-syntax-ns#"
   xmlns:svg="http://www.w3.org/2000/svg"
   xmlns="http://www.w3.org/2000/svg"
   xmlns:sodipodi="http://sodipodi.sourceforge.net/DTD/sodipodi-0.dtd"
   xmlns:inkscape="http://www.inkscape.org/namespaces/inkscape"
   width="700"
   height="700"
   version="1.1"
   id="svg4187"
   sodipodi:docname="frog_vectorized_8.svg"
   inkscape:version="0.92.4 (unknown)">
  <metadata
     id="metadata4193">
    <rdf:RDF>
      <cc:Work
         rdf:about="">
        <dc:format>image/svg+xml</dc:format>
        <dc:type
           rdf:resource="http://purl.org/dc/dcmitype/StillImage" />
        <dc:title></dc:title>
      </cc:Work>
    </rdf:RDF>
  </metadata>
  <defs
     id="defs4191" />
  <sodipodi:namedview
     pagecolor="#ffffff"
     bordercolor="#666666"
     borderopacity="1"
     objecttolerance="10"
     gridtolerance="10"
     guidetolerance="10"
     inkscape:pageopacity="0"
     inkscape:pageshadow="2"
     inkscape:window-width="1859"
     inkscape:window-height="1025"
     id="namedview4189"
     showgrid="false"
     inkscape:zoom="0.85256875"
     inkscape:cx="201.85577"
     inkscape:cy="326.36205"
     inkscape:window-x="61"
     inkscape:window-y="27"
     inkscape:window-maximized="1"
     inkscape:current-layer="svg4187" />
  <path
     style="fill:#ffffff; stroke:none;"
     d="M0 0L0 700L700 700L700 0L0 0z"
     id="path3973"
     inkscape:export-xdpi="96"
     inkscape:export-ydpi="96" />
  <path
     style="fill:#252525;stroke:none"
     d="m 280.29088,666.55364 c 2.14594,-0.36343 19.59212,-1.77664 25.64612,-6.38864 4.656,-3.546 7.126,-9.778 13.066,-11.513 11.287,-3.297 29.876,1.388 41.997,1.347 8.328,-0.028 18.689,-3.136 26.812,-0.587 4.814,1.511 4.997,8.427 7.957,11.879 4.458,5.199 12.781,7.27 19.231,8.249 12.312,1.869 25.97,0.066 38,-2.793 6.005,-1.427 16.63132,-5.52189 22.06859,-7.82593 C 479.78612,656.8635 485.873,653.699 493,649.308 c 10.491,-6.464 20.142,-15.154 31,-20.858 6.093,-3.202 13.348,-3.927 18.937,-8.152 12.954,-9.79 19.725,-31.194 29.224,-44.298 29.237,-40.335 70.793,-81.553 61.534,-136 -3.247,-19.095 -11.371,-38.228 -24.028,-53 -7.795,-9.098 -21.551,-14.804 -24.741,-27 C 573.434,316.055 557.44,279.718 528.383,244 518.13,231.397 507.936,216.37 493,209 508.455,181.958 505.52,144.222 489.507,118 483.501,108.163 472.714,101.698 467.17,91.9992 463.564,85.6906 466.357,78.7801 465.884,72 464.926,58.2712 458.668,43.9749 447,36.1453 c -13.745,-9.2234 -32.701,-8.9802 -48,-4.1018 -6.228,1.9857 -12.373,6.8491 -19,7.118 -8.218,0.3333 -17.83,-4.8013 -26,-6.3486 -15.651,-2.9643 -32.111,-3.5163 -48,-2.7535 -21.004,1.0083 -39.128,13.3509 -59,15.495 -6.879,0.7422 -13.666,-5.1157 -20,-7.1738 -11.494,-3.7344 -25.874,-3.5898 -37,1.3298 -29.88,13.212 -20.056,43.645 -25.713,68.2896 -2.037,8.876 -7.981,16.541 -11.202,25 -5.219,13.707 -7.487,30.374 -7.058,45 0.356,12.129 11.466,31.323 8.043,42 -2.455,7.656 -9.781,13.304 -13.987,20 -11.29,17.976 -24.292,37.906 -31.363,58 -6.706,19.057 -13.1886,38.685 -14.6053,59 -0.9462,13.57 3.9189,31.169 0.0305,44 -3.9474,13.025 -15.7768,24.168 -21.1251,37 -13.5795,32.58 -7.8586,70.499 12.4201,99 17.8428,25.077 40.6738,50.588 67.5598,66.11 6.822,3.938 14.295,8.109 22,9.968 4.566,1.102 10.732,-0.239 14.636,2.639 15.457,11.4 26.528,27.853 43.364,38.2 17.089,10.504 42.48241,13.04976 47.29088,12.63664 z"
     id="path3975"
     inkscape:connector-curvature="0"
     sodipodi:nodetypes="cccccscccccccccccccccccccccccccccccccccccccc" />
  <path
     style="fill:#070707; stroke:none;"
     d="M335.667 30.3333C335.222 30.778 336.278 30.7222 336.333 30.6667C336.778 30.2223 335.722 30.2776 335.667 30.3333z"
     id="path3977" />
  <path
     style="fill:#040404; stroke:none;"
     d="M344.667 31.3333C344.222 31.7779 345.278 31.7222 345.333 31.6667C345.778 31.2223 344.722 31.2776 344.667 31.3333z"
     id="path3979" />
  <path
     style="fill:#080808; stroke:none;"
     d="M415 40L418 41L415 40z"
     id="path3981" />
  <path
     style="fill:#ffffff; stroke:none;"
     d="M120 303C132.504 303.026 143.561 308.154 149 320C141.893 316.954 132.243 307.28 124.063 309.758C113.75 312.881 109.51 332.904 107.81 342C101.819 374.038 103.712 412.563 115.19 443C118.926 452.904 123.017 462.529 127.751 472C129.225 474.948 133.073 480.154 132.019 483.628C129.955 490.429 120.877 471.529 120.095 470C112.033 454.234 102.558 435.661 100 418C90.4965 425.125 85.7537 437.058 82.0072 448C64.6885 498.58 97.8948 540.698 134 573.193C148.291 586.055 165.6 601.88 186 602C178.407 584.099 169.767 554.004 199 554C194.555 557.562 188.509 559.775 185.756 565.031C178.855 578.205 187.113 592.694 195.218 603C213.202 625.867 239.754 649.484 269 655.532C277.57 657.304 314.213 653.338 300.774 636.472C297.382 632.215 284.961 636.225 280 635.885C264.964 634.854 241.865 630.303 234 616C252.784 619.098 267.644 633.52 288 630.404C295.279 629.29 303.558 626.7 306.215 618.997C307.697 614.698 307 609.483 307 605C323.5 608.447 301.989 629.045 309.423 634.774C315.321 639.319 327.981 637.997 335 638C355.26 638.007 374.744 639.645 395 637C397.022 622.981 390.122 604.182 405 596C403.517 602.186 400.221 608.487 401.274 614.999C402.9 625.062 414.514 627.601 423 628.86C446.521 632.347 461.693 624.231 484 621C469.951 646.306 423.347 635.058 402 629C394.722 655.188 419.353 660.933 440 657.678C464.49 653.817 486.013 639.823 506 626.035C513.585 620.803 523.293 615.997 526.966 606.999C532.862 592.553 520.304 574.452 509.973 565.333C504.118 560.165 497.179 556.558 490 553.608C476.086 547.89 465.698 546.996 451 549C458.207 536.402 478.169 542.965 489 547.08C516.307 557.454 536.943 580.793 533 611C546.415 604.048 553.398 580.973 562.168 569C589.209 532.083 634.476 487.837 621.253 437C617.141 421.194 610.065 405.115 598.882 393C591.556 385.063 578.661 379.469 574.806 369C570.462 357.203 570.037 344.041 565.775 332C554.854 301.147 536.989 273.977 516.082 249C508.465 239.901 499.912 228.116 490 221.454C483.296 216.949 476.335 227.867 472 231.885C456.921 245.861 438.199 257.29 420 266.732C362.603 296.509 296.252 297.533 236 274.81C223.786 270.203 211.937 264.84 200 259.568C195.388 257.53 188.347 254.837 186.061 249.941C182.254 241.79 194.768 244.831 198 246.406C216.377 255.363 234.242 264.046 254 269.712C318.59 288.233 373.737 281.127 432 247.997C460.87 231.581 486.254 211.92 490.685 177C493.222 156.999 488.04 134.903 475.442 119.001C469.809 111.891 461.467 107.299 456.156 99.9406C451.227 93.1104 454.683 86.54 454.93 79C455.283 68.209 451.214 55.5878 442.937 48.3757C430.487 37.528 412.292 39.4258 398 45.0903C392.419 47.3024 387.165 52.0057 381 52.4168C374.892 52.8241 368.672 48.8422 363 47.0427C352.892 43.8358 341.607 41.5686 331 41.0594C299.998 39.571 276.016 51.1198 247.059 58.4796C239.123 60.4966 233.739 53.8376 227 50.9103C215.575 45.9481 198.959 46.257 189.063 54.4504C171.938 68.629 178.891 91.4191 176.763 110C175.826 118.176 169.726 124.768 166.351 132C161.438 142.527 158.616 155.414 158.059 167C157.542 177.779 158.329 188.632 161.457 199C163.453 205.616 168.959 212.873 167.538 220C165.528 230.09 155.849 237.686 150.46 246C139.069 263.572 128.178 283.726 120 303z"
     id="path3983"
     inkscape:export-xdpi="96"
     inkscape:export-ydpi="96" />
  <path
     style="fill:#0b0b0b; stroke:none;"
     d="M309 41L312 42L309 41z"
     id="path3985" />
  <path
     style="fill:#252525; stroke:none;"
     d="M394 57C397.74 79.5931 427.376 92.8813 448 93C447.24 86.2819 440.427 86.5536 435 84.6458C419.149 79.0737 409.129 60.3271 394 57M190 98C208.049 96.1675 231.046 79.9625 233 61C220.772 63.8568 213.36 80.3978 202 86.6632C196.104 89.9149 190.396 90.3525 190 98z"
     id="path3989" />
  <path
     style="fill:#010101; stroke:none;"
     d="M146.333 183.667C146.278 183.722 146.222 184.778 146.667 184.333C146.722 184.278 146.778 183.222 146.333 183.667z"
     id="path3997" />
  <path
     style="fill:#252525;stroke:none"
     d="m 250.9016,197.02554 c -5.238,1.385 -5.078,6.433 -0.94,9.125 6.382,4.152 16.537,5.372 23.898,6.95 35.249,7.557 68.7074,5.37646 104.1404,-1.70054 9.061,-1.81 26.952,-2.92 33.573,-9.893 6.336,-6.672 -5.208,-8.386 -9.573,-7.476 -26.546,5.538 -37.72205,12.83116 -82.1404,15.98154 -13.28325,-0.79062 -29.832,-3.278 -44,-7.427 -7.051,-2.065 -17.54,-7.523 -24.958,-5.56 z"
     id="path3999"
     inkscape:connector-curvature="0"
     sodipodi:nodetypes="ccccccccc" />
  <path
     style="fill:#000000; stroke:none;"
     d="M359.667 214.333C359.222 214.778 360.278 214.722 360.333 214.667C360.778 214.222 359.722 214.278 359.667 214.333z"
     id="path4005" />
  <path
     style="fill:#252525; stroke:none;"
     d="M493 333C492.882 324.329 489.875 315.632 491.694 307C493.779 297.102 500.954 289.15 502 279C486.343 282.23 486 303.345 486 316C486 323.043 485.1 330.368 493 333z"
     id="path4013" />
  <path
     style="fill:#080808; stroke:none;"
     d="M308 280L311 281L308 280z"
     id="path4015" />
  <path
     style="fill:#252525; stroke:none;"
     d="M494 334C481.003 334.026 462.924 337.513 461 353C477.404 350.06 487.219 335.1 506 340.179C516.084 342.907 524.946 349.222 531.776 357.001C536.9 362.838 539.852 370.096 548 372C545.659 349.29 521.132 334.122 500 334C505.738 326.693 513.278 321.845 522 318.717C527.837 316.623 535.203 317.341 536 310C520.208 310.032 495.975 314.955 494 334M114 363C123.412 360.789 128.014 349.597 136 344.421C146.025 337.924 157.596 339 169 339L169 334C147.452 331.187 116.776 336.066 114 363z"
     id="path4023" />
  <path
     style="fill:#252525; stroke:none;"
     d="M219 351.578C203.75 355.118 195.139 372.939 192.482 387C186.16 420.459 192.788 457.505 196 491C197.227 503.796 198.778 516.13 199.011 529C199.068 532.152 199.181 538.923 203.99 538.372C210.057 537.676 208.057 525.1 207.99 521C207.69 502.781 205.89 484.138 204.088 466C201.194 436.891 191.595 395.461 213.227 371.011C216.664 367.126 222.787 360.964 228.508 361.199C232.915 361.381 245.025 372.803 248.192 363.784C252.771 350.743 225.715 350.02 219 351.578z"
     id="path4029" />
  <path
     style="fill:#000000; stroke:none;"
     d="M572.333 357.667C572.278 357.722 572.222 358.778 572.667 358.333C572.722 358.278 572.778 357.222 572.333 357.667z"
     id="path4031" />
  <path
     style="fill:#252525;stroke:none"
     d="m 443,364.558 c -3.857,0.813 -16.87,6.414 -8.773,11.282 4.65,2.795 10.928,-1.26 15.773,-1.501 6.245,-0.31 12.721,2.501 18,5.562 22.144,12.839 32.385,41.858 25.557,66.099 -4.285,15.21 -13.758,27.477 -13.519,44 0.181,12.562 7.956,24.011 13.172,35 1.82,3.836 4.236,10.94 9.692,10.372 5.958,-0.621 3.539,-8.981 2.214,-12.372 -4.201,-10.751 -14.764,-24.04 -13.593,-36 1.367,-13.956 10.896,-26.021 13.017,-40 C 510.1,410.355 489.609,354.731 443,364.558 M 430,378 c 0.749,6.949 7.56,7.924 11.506,13.031 5.924,7.665 3.462,19.147 -0.893,26.969 -11.772,21.143 -36.912,41.958 -57.613,53.979 -3.758,2.182 -27.394,14.34 -30.42,8.36 -1.7,-3.359 1.40069,-11.819 2.39369,-15.386 0.25754,-1.32261 0.73862,-1.85723 0.7857,-3.65977 C 366.59985,459.53715 391.727,455.811 395,442 c -17.803,1.037 -31.156,15.594 -50,13.803 -6.596,-0.627 -14.01,-1.663 -18.604,-6.894 -3.743,-4.262 -6.797,-13.221 1.604,-12.909 3.182,-2.702 9.123,-8.833 13.087,-9.666 12.734,-2.675 39.807,6.093 44.913,-12.334 -10.199,0.297 -18.998,5.709 -29,6.793 -6.653,0.721 -11.736,-2.07 -18,-2.793 -1.215,-3.752 -2.639,-5.907 -6,-8 -1.278,4.689 -0.159,11.63 -3.69,15.398 C 317.774,437.707 290.7,421.547 279,418 l 1,7 c 7.282,2.121 29.633,5.397 34.283,10.648 3.885,4.388 3.345,13.86 6.717,19.352 -23.302,1.714 -38.896,-15.96 -60,-18 0.496,9.494 12.302,12.693 20,15.689 21.901,8.526 44.71,9.177 68,9.311 -1.495,16.742 -15.984,27.328 -33,24.634 -25.766,-4.079 -51.319,-18.105 -72,-33.381 -5.914,-4.369 -12.491,-11.255 -20,-12.626 -3.208,-0.585 -8.229,0.984 -7.93,5.082 0.377,5.172 8.363,8.86 11.93,11.551 12.364,9.33 24.076,18.486 38,25.492 36.825,18.527 84.459,20.825 122,1.96 14.601,-7.338 26.061,-18.672 38,-29.516 4.493,-4.081 9.06,-11.107 14.224,-14.046 C 451.893,434.507 458,442.833 458,425 c -5.033,1.188 -9.804,2.717 -15,3 11.652,-16.737 14.034,-49.841 -13,-50 z"
     id="path4039"
     inkscape:connector-curvature="0"
     sodipodi:nodetypes="cccccccccccccccccccccscccccccccccccccccccccccccc" />
  <path
     style="fill:#000000; stroke:none;"
     d="M279 425L280 426L279 425z"
     id="path4063" />
  <path
     style="fill:#000000; stroke:none;"
     d="M326 426L327 427L326 426z"
     id="path4079" />
  <path
     style="fill:#020202; stroke:none;"
     d="M328 434L331 435L328 434z"
     id="path4093" />
  <path
     style="fill:#000000; stroke:none;"
     d="M273 456L274 457L273 456z"
     id="path4109" />
  <path
     style="fill:#040404; stroke:none;"
     d="M280 490L283 491L280 490z"
     id="path4135" />
  <path
     style="fill:#565656; stroke:none;"
     d="M283 490L284 491L283 490z"
     id="path4137" />
  <path
     style="fill:#131313; stroke:none;"
     d="M283 491L284 492L283 491z"
     id="path4139" />
  <path
     style="fill:#252525; stroke:none;"
     d="M420 572C421.293 590.802 443.992 590 458 590C465.54 590 473.776 591.28 477 583C463.764 583.181 452.227 585.989 439 582.232C431.654 580.146 427.298 572.775 420 572M219 587C227.908 610.802 280.461 603.217 282 577C273.193 579.842 269.239 589.752 260 592.738C246.236 597.187 232.63 588.197 219 587z"
     id="path4149" />
  <path
     style="fill:#0b0b0b; stroke:none;"
     d="M435 630L438 631L435 630z"
     id="path4163" />
  <path
     style="fill:#030303; stroke:none;"
     d="M466 663L467 664L466 663z"
     id="path4183" />
</svg>
