<?xml version="1.0" encoding="UTF-8" standalone="no"?>
<svg
   xmlns:dc="http://purl.org/dc/elements/1.1/"
   xmlns:cc="http://creativecommons.org/ns#"
   xmlns:rdf="http://www.w3.org/1999/02/22-rdf-syntax-ns#"
   xmlns:svg="http://www.w3.org/2000/svg"
   xmlns="http://www.w3.org/2000/svg"
   xmlns:sodipodi="http://sodipodi.sourceforge.net/DTD/sodipodi-0.dtd"
   xmlns:inkscape="http://www.inkscape.org/namespaces/inkscape"
   width="441.70374"
   height="268.3139"
   version="1.1"
   id="svg66"
   sodipodi:docname="frog-head2.svg"
   inkscape:export-filename="/home/sebastian/Escritorio/frog/frog-head.svg.png"
   inkscape:export-xdpi="96"
   inkscape:export-ydpi="96"
   inkscape:version="0.92.4 (unknown)">
  <metadata
     id="metadata72">
    <rdf:RDF>
      <cc:Work
         rdf:about="">
        <dc:format>image/svg+xml</dc:format>
        <dc:type
           rdf:resource="http://purl.org/dc/dcmitype/StillImage" />
        <dc:title></dc:title>
      </cc:Work>
    </rdf:RDF>
  </metadata>
  <defs
     id="defs70" />
  <sodipodi:namedview
     pagecolor="#ffffff"
     bordercolor="#666666"
     borderopacity="1"
     objecttolerance="10"
     gridtolerance="10"
     guidetolerance="10"
     inkscape:pageopacity="0"
     inkscape:pageshadow="2"
     inkscape:window-width="1718"
     inkscape:window-height="927"
     id="namedview68"
     showgrid="false"
     inkscape:zoom="1.3485714"
     inkscape:cx="220.96069"
     inkscape:cy="227.04125"
     inkscape:window-x="61"
     inkscape:window-y="27"
     inkscape:window-maximized="0"
     inkscape:current-layer="svg66"
     units="mm"
     inkscape:lockguides="true" />
  <path
     style="fill:#252525;stroke:none"
     d="m 55.932203,206.28002 c 15.353,-13.948 -2.46,-36.725 -2.973,-54 -0.43,-14.48 1.915,-29.547 7.451,-43 3.213,-7.807 9.645,-14.535001 11.146,-23.000001 3.425,-19.311 -4.956,-39.737 11.502,-55.855 10.47,-10.254 26.192997,-10.785 38.873997,-4.784 5.3,2.508 9.867,7.487 16,7.8 13.246,0.677 30.802,-10.575 44,-13.783 20.91,-5.084 41.923,-5.671 63,-1.368 8.809,1.798 17.237,6.427 26,7.731 9.538,1.419 15.589,-3.892 24,-7.029 17.246,-6.432 37.676,-6.103 48.494,11.288 2.653,4.264 4.437,9.125 5.587,14 2.02,8.569 -2.384,16.702 -0.672,25 2.318,11.237 17.136,18.053 23.521,27 16.927,23.719001 18.989,57.483001 4.735,83.000001 -11.98,21.446 -35.857,34.841 -56.665,46.316 -61.043,33.663 -122.581,37.183 -188,12.494 -13.957,-5.268 -27.042,-13.913 -40.999997,-18.657 -4.112,-1.398 -14.469,-1.362 -10.114,5.725 7.552,12.289 37.119997,19.429 50.113997,24.312 60.07,22.571 129.068,21.149 186,-8.981 16.818,-8.9 33.472,-19.345 48,-31.669 4.947,-4.196 11.08809,-9.94294 19.18538,-22.14064 15.36386,-31.37347 19.60862,-61.29836 0.91462,-93.399361 -6.12,-10.51 -19.55,-18.07 -23.884,-29 -2.39,-6.028 0.205,-12.719 -0.416,-19 -1.693,-17.129 -11.018,-33.383 -27.8,-39.4189999 -12.469,-4.483 -27.603,-3.4 -40,0.79 -5.884,1.989 -11.675,6.5339999 -18,6.7899999 -8.218,0.334 -17.83,-4.8009999 -26,-6.3479999 -15.423,-2.921 -31.351,-3.25 -47,-2.786 -21.382,0.634 -38.839,11.6369999 -59,15.3669999 -7.275,1.347 -14.344,-4.851 -21,-7.013 -12.415,-4.0339999 -28.469997,-3.6639999 -39.999997,2.83 -25.226,14.207 -18.831,41.317 -22.336,64.789 -1.697,11.363 -10.046,20.986001 -13.224,32.000001 -8.347,28.933 -7.649,69.025 9.56,94 z"
     id="path4"
     inkscape:connector-curvature="0"
     sodipodi:nodetypes="csccccccccccccsccccccccccccccccscccccc" />
  <path
     style="fill:#080808;stroke:none"
     d="m 309.9322,14.280019 3,1 z"
     id="path10"
     inkscape:connector-curvature="0" />
  <path
     style="fill:#0b0b0b;stroke:none"
     d="m 203.9322,15.280019 3,1 z"
     id="path12"
     inkscape:connector-curvature="0" />
  <path
     style="fill:#252525;stroke:none"
     d="m 288.9322,31.280019 c 3.74,22.593 33.376,35.881 54,36 -0.76,-6.718 -7.573,-6.446 -13,-8.354 -15.851,-5.572 -25.871,-24.319 -41,-27.646 m -203.999997,41 c 18.048997,-1.832 41.045997,-18.038 42.999997,-37 -12.228,2.857 -19.64,19.398 -30.999997,25.663 -5.896,3.252 -11.604,3.69 -12,11.337 z"
     id="path16"
     inkscape:connector-curvature="0" />
  <path
     style="fill:#000000;stroke:none"
     d="m 71.265203,59.947019 c -0.055,0.055 -0.111,1.111 0.334,0.666 0.055,-0.055 0.111,-1.111 -0.334,-0.666 z"
     id="path22"
     inkscape:connector-curvature="0" />
  <path
     style="fill:#010101;stroke:none"
     d="m 41.265203,157.94702 c -0.055,0.055 -0.111,1.111 0.334,0.666 0.055,-0.055 0.111,-1.111 -0.334,-0.666 z"
     id="path24"
     inkscape:connector-curvature="0" />
  <path
     style="fill:#252525;stroke:none"
     d="m 146.9742,167.98802 c -5.238,1.385 -5.078,6.433 -0.94,9.125 6.382,4.152 16.537,5.372 23.898,6.95 35.249,7.557 67.567,8.694 103,1.617 9.061,-1.81 26.952,-2.92 33.573,-9.893 6.336,-6.672 -5.208,-8.386 -9.573,-7.476 -26.546,5.538 -53.273,15.734 -81,12.664 -14.631,-1.62 -29.832,-3.278 -44,-7.427 -7.051,-2.065 -17.54,-7.523 -24.958,-5.56 z"
     id="path26"
     inkscape:connector-curvature="0" />
  <path
     style="fill:#000000;stroke:none"
     d="m 447.2652,253.94702 c -0.055,0.055 -0.111,1.111 0.334,0.666 0.055,-0.055 0.111,-1.111 -0.334,-0.666 z"
     id="path48"
     inkscape:connector-curvature="0" />
  <path
     style="fill:#080808;stroke:none"
     d="m 202.9322,254.28002 3,1 z"
     id="path50"
     inkscape:connector-curvature="0" />
  <path
     style="fill:#000000;stroke:none"
     d="m 5.9322034,266.28002 1,1 z"
     id="path60"
     inkscape:connector-curvature="0" />
  <path
     style="fill:#000000;stroke:none"
     d="m 445.9322,270.28002 1,1 z"
     id="path64"
     inkscape:connector-curvature="0" />
</svg>
