<?xml version="1.0" encoding="UTF-8" standalone="no"?>
<svg
   xmlns:dc="http://purl.org/dc/elements/1.1/"
   xmlns:cc="http://creativecommons.org/ns#"
   xmlns:rdf="http://www.w3.org/1999/02/22-rdf-syntax-ns#"
   xmlns:svg="http://www.w3.org/2000/svg"
   xmlns="http://www.w3.org/2000/svg"
   xmlns:sodipodi="http://sodipodi.sourceforge.net/DTD/sodipodi-0.dtd"
   xmlns:inkscape="http://www.inkscape.org/namespaces/inkscape"
   width="441.70374"
   height="268.3139"
   version="1.1"
   id="svg66"
   sodipodi:docname="frog-head-white.svg"
   inkscape:export-filename="/home/sebastian/Escritorio/frog/frog-head.svg.png"
   inkscape:export-xdpi="96"
   inkscape:export-ydpi="96"
   inkscape:version="0.92.4 (unknown)">
  <metadata
     id="metadata72">
    <rdf:RDF>
      <cc:Work
         rdf:about="">
        <dc:format>image/svg+xml</dc:format>
        <dc:type
           rdf:resource="http://purl.org/dc/dcmitype/StillImage" />
        <dc:title></dc:title>
      </cc:Work>
    </rdf:RDF>
  </metadata>
  <defs
     id="defs70" />
  <sodipodi:namedview
     pagecolor="#ffffff"
     bordercolor="#666666"
     borderopacity="1"
     objecttolerance="10"
     gridtolerance="10"
     guidetolerance="10"
     inkscape:pageopacity="0"
     inkscape:pageshadow="2"
     inkscape:window-width="1718"
     inkscape:window-height="927"
     id="namedview68"
     showgrid="false"
     inkscape:zoom="0.95358398"
     inkscape:cx="-94.919324"
     inkscape:cy="28.637938"
     inkscape:window-x="61"
     inkscape:window-y="27"
     inkscape:window-maximized="0"
     inkscape:current-layer="svg66"
     units="mm"
     inkscape:lockguides="true" />
  <path
     style="fill:#252525;stroke:none"
     d="m 55.932203,206.28002 c 15.353,-13.948 -2.46,-36.725 -2.973,-54 -0.43,-14.48 1.915,-29.547 7.451,-43 3.213,-7.807 9.645,-14.535001 11.146,-23.000001 3.425,-19.311 -4.956,-39.737 11.502,-55.855 10.47,-10.254 26.192997,-10.785 38.873997,-4.784 5.3,2.508 9.867,7.487 16,7.8 13.246,0.677 30.802,-10.575 44,-13.783 20.91,-5.084 41.923,-5.671 63,-1.368 8.809,1.798 17.237,6.427 26,7.731 9.538,1.419 15.589,-3.892 24,-7.029 17.246,-6.432 37.676,-6.103 48.494,11.288 2.653,4.264 4.437,9.125 5.587,14 2.02,8.569 -2.384,16.702 -0.672,25 2.318,11.237 17.136,18.053 23.521,27 16.927,23.719001 18.989,57.483001 4.735,83.000001 -11.98,21.446 -35.857,34.841 -56.665,46.316 -61.043,33.663 -122.581,37.183 -188,12.494 -13.957,-5.268 -27.042,-13.913 -40.999997,-18.657 -4.112,-1.398 -14.469,-1.362 -10.114,5.725 7.552,12.289 37.119997,19.429 50.113997,24.312 60.07,22.571 129.068,21.149 186,-8.981 16.818,-8.9 33.472,-19.345 48,-31.669 4.947,-4.196 11.08809,-9.94294 19.18538,-22.14064 15.36386,-31.37347 19.60862,-61.29836 0.91462,-93.399361 -6.12,-10.51 -19.55,-18.07 -23.884,-29 -2.39,-6.028 0.205,-12.719 -0.416,-19 -1.693,-17.129 -11.018,-33.383 -27.8,-39.4189999 -12.469,-4.483 -27.603,-3.4 -40,0.79 -5.884,1.989 -11.675,6.5339999 -18,6.7899999 -8.218,0.334 -17.83,-4.8009999 -26,-6.3479999 -15.423,-2.921 -31.351,-3.25 -47,-2.786 -21.382,0.634 -38.839,11.6369999 -59,15.3669999 -7.275,1.347 -14.344,-4.851 -21,-7.013 -12.415,-4.0339999 -28.469997,-3.6639999 -39.999997,2.83 -25.226,14.207 -18.831,41.317 -22.336,64.789 -1.697,11.363 -10.046,20.986001 -13.224,32.000001 -8.347,28.933 -7.649,69.025 9.56,94 z"
     id="path4"
     inkscape:connector-curvature="0"
     sodipodi:nodetypes="csccccccccccccsccccccccccccccccscccccc" />
  <path
     style="fill:#080808;stroke:none"
     d="m 309.9322,14.280019 3,1 z"
     id="path10"
     inkscape:connector-curvature="0" />
  <path
     style="fill:#0b0b0b;stroke:none"
     d="m 203.9322,15.280019 3,1 z"
     id="path12"
     inkscape:connector-curvature="0" />
  <path
     style="fill:#252525;stroke:none"
     d="m 288.9322,31.280019 c 3.74,22.593 33.376,35.881 54,36 -0.76,-6.718 -7.573,-6.446 -13,-8.354 -15.851,-5.572 -25.871,-24.319 -41,-27.646 m -203.999997,41 c 18.048997,-1.832 41.045997,-18.038 42.999997,-37 -12.228,2.857 -19.64,19.398 -30.999997,25.663 -5.896,3.252 -11.604,3.69 -12,11.337 z"
     id="path16"
     inkscape:connector-curvature="0" />
  <path
     style="fill:#000000;stroke:none"
     d="m 71.265203,59.947019 c -0.055,0.055 -0.111,1.111 0.334,0.666 0.055,-0.055 0.111,-1.111 -0.334,-0.666 z"
     id="path22"
     inkscape:connector-curvature="0" />
  <path
     style="fill:#010101;stroke:none"
     d="m 41.265203,157.94702 c -0.055,0.055 -0.111,1.111 0.334,0.666 0.055,-0.055 0.111,-1.111 -0.334,-0.666 z"
     id="path24"
     inkscape:connector-curvature="0" />
  <path
     style="fill:#252525;stroke:none"
     d="m 146.9742,167.98802 c -5.238,1.385 -5.078,6.433 -0.94,9.125 6.382,4.152 16.537,5.372 23.898,6.95 35.249,7.557 67.567,8.694 103,1.617 9.061,-1.81 26.952,-2.92 33.573,-9.893 6.336,-6.672 -5.208,-8.386 -9.573,-7.476 -26.546,5.538 -53.273,15.734 -81,12.664 -14.631,-1.62 -29.832,-3.278 -44,-7.427 -7.051,-2.065 -17.54,-7.523 -24.958,-5.56 z"
     id="path26"
     inkscape:connector-curvature="0" />
  <path
     style="fill:#000000;stroke:none"
     d="m 447.2652,253.94702 c -0.055,0.055 -0.111,1.111 0.334,0.666 0.055,-0.055 0.111,-1.111 -0.334,-0.666 z"
     id="path48"
     inkscape:connector-curvature="0" />
  <path
     style="fill:#080808;stroke:none"
     d="m 202.9322,254.28002 3,1 z"
     id="path50"
     inkscape:connector-curvature="0" />
  <path
     style="fill:#000000;stroke:none"
     d="m 5.9322034,266.28002 1,1 z"
     id="path60"
     inkscape:connector-curvature="0" />
  <path
     style="fill:#000000;stroke:none"
     d="m 445.9322,270.28002 1,1 z"
     id="path64"
     inkscape:connector-curvature="0" />
  <path
     style="fill:#ffffff;stroke-width:0.37076271"
     d="m 204.90909,264.48561 c -23.13385,-1.0298 -46.54807,-5.5766 -68.59111,-13.31969 -3.56859,-1.25354 -11.57706,-3.99923 -17.79661,-6.10152 -16.15452,-5.46045 -23.348545,-8.51676 -29.661013,-12.60118 -4.962489,-3.21092 -8.886034,-7.75044 -8.894828,-10.29125 -0.0069,-1.99969 2.437516,-3.25269 6.353123,-3.25655 4.093417,-0.004 9.050859,1.98178 27.753568,11.11739 13.19651,6.44602 18.87639,8.83155 28.73682,12.06938 17.39719,5.71263 33.01541,9.12301 51.16255,11.17182 7.53389,0.85058 32.1733,0.96311 39.48623,0.18034 29.55333,-3.16336 55.22716,-11.11828 82.4947,-25.5606 28.23968,-14.95721 43.81329,-26.12662 54.13655,-38.8268 15.85339,-19.50363 20.38603,-47.53977 11.83448,-73.20087 -2.65871,-7.97812 -7.39512,-16.849235 -11.69259,-21.899769 -0.78081,-0.917638 -4.46482,-4.337924 -8.18668,-7.600636 -10.06325,-8.821794 -12.77892,-12.475728 -13.70649,-18.44209 -0.35994,-2.315213 -0.32245,-3.620131 0.2276,-7.922254 1.46805,-11.482273 1.42905,-13.408111 -0.39302,-19.406985 -3.44803,-11.352151 -10.39466,-19.504888 -19.73992,-23.167268 -4.49095,-1.759991 -7.56638,-2.249745 -13.96298,-2.223574 -9.20302,0.03765 -15.8877,1.730043 -26.71418,6.763336 -11.75624,5.46555 -14.19984,5.456593 -30.65305,-0.112357 -9.02913,-3.056109 -13.17802,-4.101782 -20.49294,-5.16498 -14.04213,-2.040973 -30.92033,-1.699934 -45.7892,0.925214 -9.07303,1.601875 -13.48435,2.987851 -26.13877,8.212448 -14.77903,6.101782 -19.94653,7.53607 -26.12271,7.25061 -4.20269,-0.194246 -5.59826,-0.755142 -11.69508,-4.700371 -4.1749,-2.701559 -7.84515,-4.337695 -12.7799,-5.697066 -2.29976,-0.633514 -3.87094,-0.769763 -8.90972,-0.772634 -5.592548,-0.0032 -6.397848,0.08221 -9.38307,0.995035 -5.913832,1.808334 -9.982646,4.356651 -14.195711,8.890839 -4.228518,4.550816 -6.913744,9.838448 -8.320077,16.383537 -0.709958,3.304152 -0.83018,5.462748 -1.104752,19.835806 -0.170598,8.930335 -0.4879,16.955516 -0.710976,17.981992 -1.001813,4.609785 -2.093011,7.020143 -6.73782,14.883227 -4.369736,7.39741 -6.253059,11.94575 -8.421844,20.33923 -2.418041,9.35814 -3.403297,17.21501 -3.403297,27.13941 0,7.98265 0.522027,10.81424 3.931401,21.32484 4.013106,12.37181 4.632548,14.99105 4.860958,20.55402 0.174698,4.25481 0.101331,5.20188 -0.575639,7.43065 -0.775192,2.55215 -2.984725,6.38106 -4.408183,7.63895 -0.740525,0.6544 -0.780395,0.6244 -2.23854,-1.68441 -6.022959,-9.53668 -10.14776,-22.09782 -12.145073,-36.98503 -0.800171,-5.96417 -1.116101,-20.4793 -0.585065,-26.88029 0.857002,-10.33012 2.780762,-20.99617 5.115692,-28.36335 0.549352,-1.73332 3.06891,-7.32256 5.599018,-12.420552 2.530109,-5.097988 5.157456,-10.9375 5.838549,-12.976695 1.463614,-4.382064 2.174543,-9.922486 2.759352,-21.504238 0.880632,-17.440345 1.9401,-24.103448 4.977848,-31.306227 7.297296,-17.302557 27.420668,-26.1833733 49.621769,-21.899004 5.02606,0.969931 7.03792,1.67965 12.38854,4.370291 2.41339,1.213607 5.6393,2.6613 7.1687,3.217097 6.08975,2.213075 9.70285,1.443814 37.07627,-7.893882 16.85345,-5.7490936 21.50566,-6.5103308 39.85699,-6.5217589 13.76919,-0.00857 19.99532,0.3438561 29.44082,1.6664996 7.44638,1.0427074 9.27014,1.4683694 17.27747,4.0325203 9.02156,2.888928 11.98332,3.490287 16.08031,3.264956 3.76269,-0.206944 5.02196,-0.617962 12.24862,-3.9978695 9.6208,-4.4996367 16.73953,-6.0650574 27.65405,-6.0811695 7.58178,-0.011192 10.77762,0.4216093 16.63761,2.2531756 13.25303,4.1422932 23.34345,15.5072194 27.47495,30.9452744 1.57225,5.874999 1.86615,9.548183 1.32415,16.54944 -0.54904,7.092172 -0.30458,9.161995 1.51812,12.853872 1.91417,3.87714 4.39818,6.90751 12.18109,14.860344 4.19082,4.28231 8.22161,8.620234 8.95733,9.639831 2.05666,2.850227 5.26975,8.812934 7.30013,13.547235 10.48496,24.44815 9.17034,48.8519 -4.21348,78.21654 -4.14233,9.08843 -13.72967,20.51196 -24.46379,29.14914 -11.89554,9.5717 -25.55477,18.54417 -41.13285,27.01932 -29.69967,16.15789 -59.83882,24.43807 -95.12245,26.13315 -8.39278,0.4032 -10.86358,0.40031 -20.39195,-0.0238 z M 71.805271,60.226904 c 0,-0.20392 -0.166843,-0.370763 -0.370762,-0.370763 -0.20392,0 -0.370763,0.166843 -0.370763,0.370763 0,0.203919 0.166843,0.370762 0.370763,0.370762 0.203919,0 0.370762,-0.166843 0.370762,-0.370762 z"
     id="path21"
     inkscape:connector-curvature="0" />
  <path
     style="fill:#ffffff;stroke-width:0.37076271"
     d="m 85.327802,70.718196 c 0.381871,-2.035545 1.516192,-4.027705 2.880297,-5.058542 0.664621,-0.502246 3.127099,-1.831188 5.472173,-2.953206 5.626054,-2.691827 8.137418,-4.66756 14.306668,-11.255315 10.03601,-10.716813 13.89969,-14.008691 18.13634,-15.452262 l 1.69404,-0.577218 -0.24875,1.372434 c -0.13681,0.754839 -0.57923,2.456916 -0.98316,3.782392 -4.23142,13.88512 -20.79943,27.370073 -38.027364,30.951061 -3.640636,0.756741 -3.529277,0.784641 -3.230244,-0.809344 z"
     id="path23"
     inkscape:connector-curvature="0" />
  <path
     style="fill:#ffffff;stroke-width:0.37076271"
     d="m 338.75443,66.875029 c -14.29441,-1.187479 -29.49674,-7.766828 -38.88146,-16.827344 -5.30049,-5.117376 -8.45332,-10.069035 -10.027,-15.747848 -0.85714,-3.093075 -0.78267,-3.141373 2.66042,-1.725473 4.9335,2.028803 8.52527,4.653195 18.13363,13.249653 9.45399,8.458354 14.68446,11.917219 20.60646,13.626868 1.47842,0.42681 3.84484,1.111135 5.2587,1.520723 2.70903,0.784784 4.54239,2.033628 5.36708,3.655921 0.71956,1.415496 1.05701,2.651824 0.70747,2.591985 -0.16668,-0.02854 -1.88807,-0.183553 -3.8253,-0.344485 z"
     id="path25"
     inkscape:connector-curvature="0" />
  <path
     style="fill:#ffffff;stroke-width:0.37076271"
     d="m 218.62731,190.13668 c -17.28536,-0.7753 -30.5828,-2.52617 -51.7214,-6.81013 -13.56567,-2.74923 -18.51321,-4.41071 -21.69558,-7.28579 -2.81832,-2.54618 -2.57003,-5.79969 0.5621,-7.36576 1.18621,-0.5931 2.18807,-0.73631 5.0053,-0.71545 4.15953,0.0308 7.02216,0.72448 15.11891,3.66368 11.22447,4.07461 22.64608,6.3591 44.75927,8.95252 16.47393,1.93204 29.58754,1.14496 47.64301,-2.85956 2.75291,-0.61057 12.09613,-2.84535 20.76271,-4.96619 8.66658,-2.12083 16.84338,-4.04058 18.17067,-4.2661 4.25535,-0.72302 9.73821,0.71645 10.6906,2.80671 1.2895,2.83015 -3.76895,7.16578 -11.18481,9.58656 -2.98368,0.97397 -10.07189,2.45626 -16.19341,3.38638 -2.14115,0.32533 -7.06303,1.15884 -10.9375,1.85225 -9.10111,1.6288 -16.57812,2.62811 -24.65572,3.29527 -6.61309,0.5462 -21.299,0.95101 -26.32415,0.72561 z"
     id="path27"
     inkscape:connector-curvature="0" />
</svg>
