<?xml version="1.0" encoding="UTF-8" standalone="no"?>
<svg
   xmlns:dc="http://purl.org/dc/elements/1.1/"
   xmlns:cc="http://creativecommons.org/ns#"
   xmlns:rdf="http://www.w3.org/1999/02/22-rdf-syntax-ns#"
   xmlns:svg="http://www.w3.org/2000/svg"
   xmlns="http://www.w3.org/2000/svg"
   xmlns:sodipodi="http://sodipodi.sourceforge.net/DTD/sodipodi-0.dtd"
   xmlns:inkscape="http://www.inkscape.org/namespaces/inkscape"
   width="450"
   height="175"
   version="1.1"
   id="svg700"
   sodipodi:docname="logo.svg"
   inkscape:version="0.92.4 (unknown)">
  <metadata
     id="metadata706">
    <rdf:RDF>
      <cc:Work
         rdf:about="">
        <dc:format>image/svg+xml</dc:format>
        <dc:type
           rdf:resource="http://purl.org/dc/dcmitype/StillImage" />
        <dc:title></dc:title>
      </cc:Work>
    </rdf:RDF>
  </metadata>
  <defs
     id="defs704" />
  <sodipodi:namedview
     pagecolor="#ffffff"
     bordercolor="#666666"
     borderopacity="1"
     objecttolerance="10"
     gridtolerance="10"
     guidetolerance="10"
     inkscape:pageopacity="0"
     inkscape:pageshadow="2"
     inkscape:window-width="1859"
     inkscape:window-height="1025"
     id="namedview702"
     showgrid="false"
     showguides="true"
     inkscape:guide-bbox="true"
     inkscape:zoom="1.9377778"
     inkscape:cx="186.64456"
     inkscape:cy="53.742319"
     inkscape:window-x="61"
     inkscape:window-y="27"
     inkscape:window-maximized="1"
     inkscape:current-layer="svg700">
    <sodipodi:guide
       position="273.38016,104.01735"
       orientation="0,1"
       id="guide708"
       inkscape:locked="false" />
  </sodipodi:namedview>
  <path
     style="fill:#ffffff; stroke:none;"
     d="M0 0L0 175L450 175L450 0L0 0z"
     id="path2" />
  <path
     style="fill:#2b6a40; stroke:none;"
     d="M176 49C138.023 70.8636 95.5508 76.8627 56 93.9077C43.4974 99.2958 20.6476 121.824 36.2374 135.382C48.6223 146.154 67.5097 147.376 83 148.804C165.377 156.393 247.389 155.006 330 155C353.278 154.998 377.197 152.693 400 147.895C408.454 146.116 418.795 147.342 421.925 136.997C424.353 128.97 418.094 121.568 410 121.515C388.252 121.375 364.907 127.587 343 129.115C282.412 133.34 219.588 133.11 159 128.885C127.628 126.698 95.4235 122.064 64 122C81.5498 110.552 101.408 106.671 121 100.226C142.202 93.2518 162.961 83.5413 183 73.7586C195.44 67.6854 218.132 60.2673 219.779 44C221.382 28.165 205.597 24.401 193 24.0271C160.205 23.0539 127.69 27.9997 95 28C88.3821 28.0001 81.4631 28.6201 75 26.972C68.9806 25.4369 62.3301 21.1444 56.0105 23.0751C45.762 26.2062 45.354 39.1381 53.1292 45.1452C62.408 52.3139 76.832 53 88 53C99.0293 53 110.02 52.8144 121 51.8036C139.147 50.1331 157.777 49.0108 176 49z"
     id="path4" />
  <path
     style="fill:#2b6a40; stroke:none;"
     d="M362 116C348.494 117.761 342.391 103.826 352.818 93.7173C356.193 90.4451 361.677 93.586 365.182 90.8503C367.65 88.925 367.735 84.8255 368 82L355 82C355.638 77.578 356.796 73.2993 358 69C354.357 69.483 348.692 69.4755 345.817 72.0349C342.93 74.6058 342.478 80.4311 341.658 84C339.444 93.6491 331.112 114.096 338.521 122.73C346.41 131.922 361.967 127.861 362 116z"
     id="path10" />
  <path
     style="fill:#2b6a40;stroke:none"
     d="m 281.03225,117.98265 c -13.506,1.761 -19.609,-12.174 -9.182,-22.2827 3.375,-3.2722 8.859,-0.1313 12.364,-2.867 2.468,-1.9253 2.553,-6.0248 2.818,-8.8503 h -13 c 0.638,-4.422 1.796,-8.7007 3,-13 -3.643,0.483 -9.308,0.4756 -12.183,3.0349 -2.887,2.5709 -3.339,8.3962 -4.159,11.9651 -2.214,9.6491 -10.546,30.096 -3.137,38.73 7.889,9.192 23.446,5.131 23.479,-6.73 z"
     id="path22"
     inkscape:connector-curvature="0" />
  <path
     style="fill:#2b6a40; stroke:none;"
     d="M405 119L404 110C396.271 110.674 388.411 112.835 385 104C393.018 103.89 404.774 102.997 409.784 95.773C418.388 83.3666 405.279 72.5675 393 75.6593C378.018 79.4317 363.888 103.335 377.586 116.301C385.302 123.605 395.816 120.252 405 119z"
     id="path40" />
  <path
     style="fill:#09180e; stroke:none;"
     d="M406 76L407 77L406 76z"
     id="path50" />
  <path
     style="fill:#020503; stroke:none;"
     d="M408 77L409 78L408 77z"
     id="path54" />
  <path
     style="fill:#0a1b10; stroke:none;"
     d="M385 78L386 79L385 78z"
     id="path58" />
  <path
     style="fill:#050d07; stroke:none;"
     d="M409 78L410 79L409 78z"
     id="path60" />
  <path
     style="fill:#010402; stroke:none;"
     d="M383 79L384 80L383 79z"
     id="path64" />
  <path
     style="fill:#040b06; stroke:none;"
     d="M410 79L411 80L410 79z"
     id="path66" />
  <path
     style="fill:#06100a; stroke:none;"
     d="M382 80L383 81L382 80z"
     id="path70" />
  <path
     style="fill:#0b1e12; stroke:none;"
     d="M381 81L382 82L381 81z"
     id="path74" />
  <path
     style="fill:#2b6a40; stroke:none;"
     d="M199 126L198 117C190.271 117.674 182.411 119.835 179 111C187.018 110.89 198.774 109.997 203.784 102.773C212.388 90.3666 199.279 79.5675 187 82.6593C172.018 86.4317 157.888 110.335 171.586 123.301C179.302 130.605 189.816 127.252 199 126z"
     id="path78" />
  <path
     style="fill:#0c2013; stroke:none;"
     d="M380 82L381 83L380 82z"
     id="path84" />
  <path
     style="fill:#09180e; stroke:none;"
     d="M200 83L201 84L200 83z"
     id="path88" />
  <path
     style="fill:#2b6a40; stroke:none;"
     d="M316 128C318.674 127.509 324.035 127.623 325.732 125.156C327.505 122.578 325.236 117.883 325.236 115C325.237 108.789 334.936 88.4647 327.781 85.1065C306.262 75.0073 278.423 98.1727 289.648 120.989C296.336 134.583 307.477 122.933 316 128z"
     id="path92" />
  <path
     style="fill:#1b4229; stroke:none;"
     d="M319 83L322 84L319 83z"
     id="path94" />
  <path
     style="fill:#09170d; stroke:none;"
     d="M322 83L325 84L322 83z"
     id="path96" />
  <path
     style="fill:#020503; stroke:none;"
     d="M202 84L203 85L202 84z"
     id="path104" />
  <path
     style="fill:#2b6a40; stroke:none;"
     d="M206 129C228.161 129 216.246 109.096 226.943 96.4158C229.955 92.8445 235.506 94.7816 236.528 99.0741C237.688 103.945 234.912 110.299 233.761 115C232.622 119.649 231.63 124.252 231 129C234.124 129 239.471 129.976 242.057 127.85C248.362 122.669 252.022 94.6674 246.397 88.4614C240.964 82.4661 220.203 81.625 215.864 89.2872C213.16 94.0644 212.808 100.718 211.512 106C209.635 113.653 207.515 121.265 206 129z"
     id="path110" />
  <path
     style="fill:#0c2013; stroke:none;"
     d="M326 84L329 85L326 84z"
     id="path118" />
  <path
     style="fill:#06100a; stroke:none;"
     d="M378 84L379 85L378 84z"
     id="path120" />
  <path
     style="fill:#0a1b10; stroke:none;"
     d="M179 85L180 86L179 85z"
     id="path122" />
  <path
     style="fill:#050d07; stroke:none;"
     d="M203 85L204 86L203 85z"
     id="path124" />
  <path
     style="fill:#0a1a0f; stroke:none;"
     d="M330 85L331 86L330 85z"
     id="path134" />
  <path
     style="fill:#010402; stroke:none;"
     d="M177 86L178 87L177 86z"
     id="path140" />
  <path
     style="fill:#040b06; stroke:none;"
     d="M204 86L205 87L204 86z"
     id="path142" />
  <path
     style="fill:#112919; stroke:none;"
     d="M244 86L245 87L244 86z"
     id="path146" />
  <path
     style="fill:#050d08; stroke:none;"
     d="M300 86L301 87L300 86z"
     id="path148" />
  <path
     style="fill:#ffffff; stroke:none;"
     d="M386 94C387.999 93.9882 390.027 94.0474 392.013 93.7722C406.947 91.7033 392.772 79.7669 386 94z"
     id="path156" />
  <path
     style="fill:#0a1a0f; stroke:none;"
     d="M400 86L401 87L400 86z"
     id="path158" />
  <path
     style="fill:#06100a; stroke:none;"
     d="M176 87L177 88L176 87z"
     id="path160" />
  <path
     style="fill:#000101; stroke:none;"
     d="M246 87L247 88L246 87z"
     id="path164" />
  <path
     style="fill:#0a1b10; stroke:none;"
     d="M376 87L377 88L376 87z"
     id="path170" />
  <path
     style="fill:#010402; stroke:none;"
     d="M390 87L391 88L390 87z"
     id="path172" />
  <path
     style="fill:#0b1e12; stroke:none;"
     d="M175 88L176 89L175 88z"
     id="path176" />
  <path
     style="fill:#030905; stroke:none;"
     d="M297 88L298 89L297 88z"
     id="path180" />
  <path
     style="fill:#0c2013; stroke:none;"
     d="M174 89L175 90L174 89z"
     id="path186" />
  <path
     style="fill:#07130b; stroke:none;"
     d="M296 89L297 90L296 89z"
     id="path190" />
  <path
     style="fill:#0b1e12; stroke:none;"
     d="M173 90L174 91L173 90z"
     id="path192" />
  <path
     style="fill:#09170e; stroke:none;"
     d="M295 90L296 91L295 90z"
     id="path198" />
  <path
     style="fill:#020603; stroke:none;"
     d="M387 90L388 91L387 90z"
     id="path206" />
  <path
     style="fill:#06100a; stroke:none;"
     d="M172 91L173 92L172 91z"
     id="path210" />
  <path
     style="fill:#08140c; stroke:none;"
     d="M294 91L295 92L294 91z"
     id="path214" />
  <path
     style="fill:#020704; stroke:none;"
     d="M399 91L400 92L399 91z"
     id="path220" />
  <path
     style="fill:#040c07; stroke:none;"
     d="M293 92L294 93L293 92z"
     id="path230" />
  <path
     style="fill:#ffffff; stroke:none;"
     d="M180 101C181.999 100.988 184.027 101.047 186.013 100.772C200.947 98.7033 186.772 86.7669 180 101z"
     id="path240" />
  <path
     style="fill:#0a1a0f; stroke:none;"
     d="M194 93L195 94L194 93z"
     id="path242" />
  <path
     style="fill:#0a1a10; stroke:none;"
     d="M394 93L397 94L394 93z"
     id="path254" />
  <path
     style="fill:#0a1b10; stroke:none;"
     d="M170 94L171 95L170 94z"
     id="path258" />
  <path
     style="fill:#010402; stroke:none;"
     d="M184 94L185 95L184 94z"
     id="path260" />
  <path
     style="fill:#0a1a10; stroke:none;"
     d="M308 94L309 95L308 94z"
     id="path270" />
  <path
     style="fill:#ffffff; stroke:none;"
     d="M317 94C313.957 94.0242 310.824 93.9106 308.063 95.4123C302.274 98.561 298.083 108.67 301.524 114.784C304.025 119.228 310.321 118.23 312.31 113.899C313.402 111.52 313.558 108.543 314.119 106C315.007 101.976 315.894 97.9712 317 94z"
     id="path272" />
  <path
     style="fill:#0c1e12; stroke:none;"
     d="M235 95L236 96L235 95z"
     id="path284" />
  <path
     style="fill:#09180e; stroke:none;"
     d="M291 95L292 96L291 95z"
     id="path286" />
  <path
     style="fill:#010402; stroke:none;"
     d="M307 95L308 96L307 95z"
     id="path288" />
  <path
     style="fill:#09170d; stroke:none;"
     d="M410 95L411 96L410 95z"
     id="path292" />
  <path
     style="fill:#122e1c; stroke:none;"
     d="M305 96L306 97L305 96z"
     id="path300" />
  <path
     style="fill:#112c1a; stroke:none;"
     d="M409 96L410 97L409 96z"
     id="path308" />
  <path
     style="fill:#020603; stroke:none;"
     d="M181 97L182 98L181 97z"
     id="path312" />
  <path
     style="fill:#020704; stroke:none;"
     d="M193 98L194 99L193 98z"
     id="path322" />
  <path
     style="fill:#0f2416; stroke:none;"
     d="M407 98L408 99L407 98z"
     id="path334" />
  <path
     style="fill:#020603; stroke:none;"
     d="M303 99L304 100L303 99z"
     id="path340" />
  <path
     style="fill:#060f09; stroke:none;"
     d="M406 99L407 100L406 99z"
     id="path346" />
  <path
     style="fill:#0a1a10; stroke:none;"
     d="M188 100L191 101L188 100z"
     id="path352" />
  <path
     style="fill:#0c2013; stroke:none;"
     d="M302 100L303 101L302 100z"
     id="path360" />
  <path
     style="fill:#0d2113; stroke:none;"
     d="M404 100L405 101L404 100z"
     id="path366" />
  <path
     style="fill:#09180e; stroke:none;"
     d="M402 101L403 102L402 101z"
     id="path372" />
  <path
     style="fill:#09170d; stroke:none;"
     d="M204 102L205 103L204 102z"
     id="path374" />
  <path
     style="fill:#112c1a; stroke:none;"
     d="M203 103L204 104L203 103z"
     id="path388" />
  <path
     style="fill:#102a19; stroke:none;"
     d="M392 103L395 104L392 103z"
     id="path396" />
  <path
     style="fill:#0f2416; stroke:none;"
     d="M201 105L202 106L201 105z"
     id="path410" />
  <path
     style="fill:#060f09; stroke:none;"
     d="M200 106L201 107L200 106z"
     id="path424" />
  <path
     style="fill:#0d2113; stroke:none;"
     d="M198 107L199 108L198 107z"
     id="path434" />
  <path
     style="fill:#09180e; stroke:none;"
     d="M196 108L197 109L196 108z"
     id="path444" />
  <path
     style="fill:#102a19; stroke:none;"
     d="M186 110L189 111L186 110z"
     id="path476" />
  <path
     style="fill:#102918; stroke:none;"
     d="M397 110L400 111L397 110z"
     id="path482" />
  <path
     style="fill:#0a190f; stroke:none;"
     d="M375 114L376 115L375 114z"
     id="path512" />
  <path
     style="fill:#020604; stroke:none;"
     d="M312 115L313 116L312 115z"
     id="path520" />
  <path
     style="fill:#122e1b; stroke:none;"
     d="M376 115L377 116L376 115z"
     id="path524" />
  <path
     style="fill:#061009; stroke:none;"
     d="M301 116L302 117L301 116z"
     id="path534" />
  <path
     style="fill:#030905; stroke:none;"
     d="M311 116L312 117L311 116z"
     id="path536" />
  <path
     style="fill:#102918; stroke:none;"
     d="M191 117L194 118L191 117z"
     id="path544" />
  <path
     style="fill:#020704; stroke:none;"
     d="M302 117L303 118L302 117z"
     id="path550" />
  <path
     style="fill:#0a1b10; stroke:none;"
     d="M310 117L311 118L310 117z"
     id="path552" />
  <path
     style="fill:#0c1f12; stroke:none;"
     d="M378 117L379 118L378 117z"
     id="path554" />
  <path
     style="fill:#132e1b; stroke:none;"
     d="M401 119L404 120L401 119z"
     id="path582" />
  <path
     style="fill:#14341f; stroke:none;"
     d="M396 120L399 121L396 120z"
     id="path594" />
  <path
     style="fill:#0a190f; stroke:none;"
     d="M169 121L170 122L169 121z"
     id="path598" />
  <path
     style="fill:#122e1b; stroke:none;"
     d="M170 122L171 123L170 122z"
     id="path602" />
  <path
     style="fill:#0a1a0f; stroke:none;"
     d="M337 122L338 123L337 122z"
     id="path610" />
  <path
     style="fill:#0f2416; stroke:none;"
     d="M338 123L339 124L338 123z"
     id="path616" />
  <path
     style="fill:#0c1f12; stroke:none;"
     d="M172 124L173 125L172 124z"
     id="path618" />
  <path
     style="fill:#0a1a0f; stroke:none;"
     d="M256 124L257 125L256 124z"
     id="path626" />
  <path
     style="fill:#0b1d11; stroke:none;"
     d="M291 124L292 125L291 124z"
     id="path628" />
  <path
     style="fill:#09190f; stroke:none;"
     d="M339 124L340 125L339 124z"
     id="path632" />
  <path
     style="fill:#0f2416; stroke:none;"
     d="M257 125L258 126L257 125z"
     id="path638" />
  <path
     style="fill:#0b1d11; stroke:none;"
     d="M292 125L293 126L292 125z"
     id="path640" />
  <path
     style="fill:#132e1b; stroke:none;"
     d="M195 126L198 127L195 126z"
     id="path650" />
  <path
     style="fill:#09190f; stroke:none;"
     d="M258 126L259 127L258 126z"
     id="path656" />
  <path
     style="fill:#050e08; stroke:none;"
     d="M293 126L294 127L293 126z"
     id="path658" />
  <path
     style="fill:#040b07; stroke:none;"
     d="M312 126L313 127L312 126z"
     id="path660" />
  <path
     style="fill:#09180e; stroke:none;"
     d="M356 126L359 127L356 126z"
     id="path668" />
  <path
     style="fill:#14341f; stroke:none;"
     d="M190 127L193 128L190 127z"
     id="path672" />
  <path
     style="fill:#07130b; stroke:none;"
     d="M310 127L311 128L310 127z"
     id="path684" />
  <path
     style="fill:#000201; stroke:none;"
     d="M205 128L206 129L205 128z"
     id="path688" />
  <path
     style="fill:#09180e; stroke:none;"
     d="M275 128L278 129L275 128z"
     id="path692" />
  <path
     style="fill:#1c452a; stroke:none;"
     d="M305 128L308 129L305 128z"
     id="path696" />
  <path
     style="fill:#030905; stroke:none;"
     d="M308 128L309 129L308 128z"
     id="path698" />
</svg>
